<svg width="117" height="120" viewBox="0 0 117 120" fill="none" xmlns="http://www.w3.org/2000/svg">
  <path d="M58.4301 25.45C80.5901 25.45 97.8201 15.97 107.55 0.450012H80.7201C74.9101 5.09001 67.4001 7.77001 58.4301 7.77001C49.4601 7.77001 41.8502 5.10001 36.0202 0.450012H9.16016C18.9102 15.97 36.1701 25.45 58.4301 25.45Z" fill="black"/>
  <path d="M58.43 31.98C23.54 31.98 0.27002 56.52 0.27002 90.3C0.27002 101.19 2.61002 111.02 6.93002 119.38H31.93C25.56 112.17 22.1 102 22.1 90.3C22.1 66.88 35.48 49.67 58.43 49.67C81.38 49.67 94.6 66.88 94.6 90.3C94.6 102.01 91.14 112.18 84.79 119.38H109.78C114.09 111.02 116.43 101.19 116.43 90.3C116.43 56.52 93.48 31.98 58.43 31.98Z" fill="black"/>
</svg>
