<svg width="18" height="18" viewBox="0 0 18 18" fill="none" xmlns="http://www.w3.org/2000/svg">
  <path d="M12.0101 9.5C12.5901 9 12.8801 8.3 12.8801 7.41C12.8801 6.52 12.5901 5.84001 12.0201 5.35001C11.4401 4.86001 10.6401 4.62 9.61011 4.62H6.39014V13.45H8.25012V10.25H9.59015L11.2301 13.45H13.3101L11.4201 9.87C11.6401 9.75999 11.8401 9.64001 12.0201 9.49001L12.0101 9.5ZM10.6801 8.48C10.4601 8.74 10.0802 8.87 9.53015 8.87H8.24011V6.00999H9.53015C10.0702 6.00999 10.4501 6.14 10.6801 6.39C10.9001 6.64 11.0101 6.98999 11.0101 7.42999C11.0101 7.86999 10.9001 8.23001 10.6801 8.49001V8.48Z" fill="black"/>
  <path d="M9.45996 0.599976C4.74996 0.599976 0.919922 4.42997 0.919922 9.13997C0.919922 13.85 4.74996 17.68 9.45996 17.68C14.17 17.68 17.9999 13.85 17.9999 9.13997C17.9999 4.42997 14.17 0.599976 9.45996 0.599976ZM9.45996 16.04C5.65996 16.04 2.56995 12.95 2.56995 9.14996C2.56995 5.34996 5.65996 2.25996 9.45996 2.25996C13.26 2.25996 16.3499 5.34996 16.3499 9.14996C16.3499 12.95 13.26 16.04 9.45996 16.04Z" fill="black"/>
</svg>
